# xmcd
#
# Track frame offsets:
#	150
#	16594
#	28448
#	46173
#	64109
#	80523
#	98644
#	113458
#	130134
#	146483
#	166130
#	179497
#	201715
#	213265
#
# Disc length: 2987
#
# Revision: 1
# Processed by: cddbd v1.5.1PL0 Copyright (c) Steve Scherf et al.
# Submitted via: VisiTrax 2.9.1.155 - For more info visit www.synapsa.com
# Normalized: r0:DSETVAR1
#
DISCID=bc0ba90e
DTITLE=Various Artist - Nu Country Traxx Vol 19 - Nov 2000
DYEAR=1900
DGENRE=
TTITLE0=Kinleys - I'm In
TTITLE1=Heatherly, Eric - Wrong 5 O'Clock
TTITLE2=Gilman, Billy - Oklahoma
TTITLE3=Tennison, Chalee - Go Back
TTITLE4=Diamond Rio - One More Day
TTITLE5=Isaacs, Sonya - How Can I Forget
TTITLE6=Alabama - When It All Goes South
TTITLE7=Keith, Toby - You Shouldn't Kiss Me Like This
TTITLE8=Andrews, Jessica - Who I Am
TTITLE9=Hill, Faith - Where Are You Christmas
TTITLE10=Various Artist - You're A Mean One, Mr. Grinch
TTITLE11=Charlie Daniels Band - The Martyr
TTITLE12=Engvall, Bill - Here's your Sign Christmas
TTITLE13=Foxworthy, Jeff - Redneck 12 Days Of Christmas
EXTD=
EXTT0=
EXTT1=
EXTT2=
EXTT3=
EXTT4=
EXTT5=
EXTT6=
EXTT7=
EXTT8=
EXTT9=
EXTT10=
EXTT11=
EXTT12=
EXTT13=
PLAYORDER=
